<?xml version="1.0" encoding="utf-8"?>
<!-- Generator: Adobe Illustrator 26.0.2, SVG Export Plug-In . SVG Version: 6.00 Build 0)  -->
<svg version="1.1" id="Layer_2_00000016054247416363221060000010512482532632395967_"
	 xmlns="http://www.w3.org/2000/svg" xmlns:xlink="http://www.w3.org/1999/xlink" x="0px" y="0px" viewBox="0 0 128 128"
	 style="enable-background:new 0 0 128 128;" xml:space="preserve">
<style type="text/css">
	.st0{fill:#F86563;}
	.st1{fill:#FFFFFF;}
	.st2{fill:#FEEEC5;}
	.st3{fill:#74534B;}
	.st4{fill:#F69E6F;}
	.st5{fill:#4F3F3B;}
	.st6{fill:#FCCB9E;}
	.st7{fill:#82513E;}
</style>
<path class="st0" d="M78,96v4h-4v-4H78z M50,96v4h4v-4H50z M54,100v4h20v-4H64H54z"/>
<path class="st1" d="M54,96v4h20v-4H54z M46,64h4v-4h-4V64z"/>
<path class="st2" d="M82,36v-4H70v-4h-6h-6v4H46v4h8v4h20v-4H82z M38,75h12v-4H38V75z M62,52v20h4V52H62z M62,76v4h4v-4H62z"/>
<path class="st3" d="M86,100h8v8h-4v4h-4v4h-4v-12h-4v-8H50v8h-4v12h-4v-4h-4v-4h-4v-8h8v-4h4v-4h8v-4h8v4h4v-4h8v4h8v4h4V100z
	 M94,100h4v-4h-4V100z M98,92h4v-8h-4V92z M74,120h8v-4h-8V120z M54,12v4h20v-4H54z M74,16v4h12v-4H74z M86,20v4h4v-4H86z M90,24v4
	h4v-4H90z M94,28v4h4v-4H94z M98,32v20h4V32H98z M30,96v4h4v-4H30z M30,84h-4v8h4V84z M46,116v4h8v-4H46z M54,120v4h20v-4H54z
	 M58,104v4h4v4h4v-4h4v-4H58z M42,20h12v-4H42V20z M38,24h4v-4h-4V24z M34,28h4v-4h-4V28z M30,32h4v-4h-4V32z M26,52h4V32h-4V52z"/>
<path class="st4" d="M74,84v-4h4v4H74z M70,80h4V56h-4V80z M106,56v8h4v12h4V56H106z M106,80h4v-4h-4V80z M98,84h4V52h-4V84z M94,32
	v20h4V32H94z M90,28v4h4v-4H90z M86,24v4h4v-4H86z M74,20v4h12v-4H74z M54,16v4h20v-4H54z M54,84v4h20v-4H54z M50,80v4h4v-4H50z
	 M58,56h-4v24h4V56z M42,52v4h12v-4H42z M14,76h4V64h4v-8h-8V76z M22,80v-4h-4v4H22z M26,84h4V52h-4V84z M30,52h4V32h-4V52z M34,32
	h4v-4h-4V32z M38,28h4v-4h-4V28z M42,24h12v-4H42V24z"/>
<path class="st5" d="M106,28v64h-4V32h-4v-4h-4v-4h-4v-4h-4v-4H74v-4H54v4H42v4h-4v4h-4v4h-4v4h-4v60h-4V28h4V16h4v-4h4V8h8V4h8V0
	h28v4h8v4h8v4h4v4h4v12H106z M98,100h4v-8h-4V100z M94,108h4v-8h-4V108z M90,112h4v-4h-4V112z M86,116h4v-4h-4V116z M82,120h4v-4h-4
	V120z M74,124h8v-4h-8V124z M74,48h20v-4H74V48z M70,52h4v-4h-4V52z M26,92v8h4v-8H26z M30,100v8h4v-8H30z M34,108v4h4v-4H34z
	 M38,112v4h4v-4H38z M42,116v4h4v-4H42z M46,120v4h8v-4H46z M54,124v4h20v-4H54z M34,44v4h20v-4H34z M54,52h4v-4h-4V52z"/>
<path class="st6" d="M110,64v12h-4V64H110z M94,52h4v44h-4v4h-8v-4h-4v-4h-8v-8h4v-4h-4V56v-4v-4h20V52z M74,80v4H54v-4h4V56h-4v-4
	h4v-4h-4v-4H34v-8v-4h4v-4h4v-4h12v-4h20v4h12v4h4v4h4v4v8H74v4h-4v4h4v4h-4v24H74z M74,40v-4h8v-4H70v-4H58v4H46v4h8v4H74z M66,76
	h-4v4h4V76z M66,52h-4v20h4V52z M78,100h-4v4h-4v4h-4v3h-4v-3h-4v-4h-4v-4h-4v4h-4v12h8v4h20v-4h8v-12h-4V100z M66,92v-4h-4v4H66z
	 M18,76h4V64h-4V76z M50,84h4v8h-8v4h-4v4h-8v-4h-4V52h4v-4h20v4H42v4h12v24h-4V84z M38,71v4h12V60h-8v11H38z"/>
<path class="st7" d="M86,64v3.5h-8V64H86z M46,60h-4v4v7h8v-7h-4V60z"/>
<rect x="78" y="67.5" class="st2" width="12" height="4"/>
<rect x="74" y="56" class="st4" width="12" height="4"/>
</svg>
