<?xml version="1.0" encoding="iso-8859-1"?>
<!-- Generator: Adobe Illustrator 26.3.1, SVG Export Plug-In . SVG Version: 6.00 Build 0)  -->
<svg version="1.1" id="Layer_1" xmlns="http://www.w3.org/2000/svg" xmlns:xlink="http://www.w3.org/1999/xlink" x="0px" y="0px"
	 width="60px" height="47px" viewBox="0 0 60 47" enable-background="new 0 0 60 47" xml:space="preserve">
<path d="M58.461,31.933c-1.027,2.689-2.354,4.908-3.982,6.659c-1.629,1.752-3.508,3.157-5.638,4.217
	c-2.131,1.06-4.735,1.88-7.814,2.46c-1.361,0.267-3.503,0.401-6.425,0.401h-2.036c-0.539,0-0.976-0.437-0.976-0.976v-0.525
	c0-0.539,0.437-0.976,0.976-0.976h2.806c3.726,0,6.57-1.272,8.533-3.815c2.677-3.435,4.016-8.768,4.016-15.996
	c0-5.823-0.915-10.474-2.744-13.954c-1.451-2.722-3.313-4.573-5.588-5.555c-1.596-0.687-4.241-1.021-7.93-1.004
	c-1.338,0-2.409,0.234-3.212,0.703c-0.558,0.313-1.004,0.848-1.339,1.606c-0.246,0.535-0.368,1.941-0.368,4.216v20.881
	c0,4.35-0.435,7.513-1.305,9.487c-0.87,1.974-2.415,3.626-4.635,4.953c-2.22,1.327-4.891,1.991-8.015,1.991
	c-3.815,0-6.899-1.004-9.253-3.012C1.177,41.688,0,39.468,0,37.036c0-1.561,0.48-2.828,1.439-3.798
	c0.959-0.97,2.13-1.455,3.514-1.455c1.36,0,2.504,0.435,3.43,1.305c0.925,0.87,1.389,1.941,1.389,3.213
	c0,2.892-2.209,2.866-2.209,5.254c0,0.581,0.29,1.083,0.87,1.506c0.848,0.625,1.952,0.937,3.313,0.937
	c0.959,0,1.751-0.245,2.376-0.736c0.624-0.49,1.065-1.255,1.322-2.292c0.256-1.038,0.385-3.921,0.385-8.65V9.395
	c0-2.32-0.129-3.77-0.385-4.35c-0.257-0.58-0.759-1.088-1.506-1.523C13.19,3.087,12.181,2.87,10.909,2.87H9.977
	c-0.539,0-0.976-0.437-0.976-0.976V1.268c0-0.539,0.437-0.976,0.976-0.976h24.624c5.421,0,9.782,0.736,13.084,2.209
	c4.037,1.807,7.099,4.54,9.186,8.199C58.957,14.359,60,18.497,60,23.115C60,26.306,59.486,29.245,58.461,31.933z"/>
<g>
</g>
<g>
</g>
<g>
</g>
<g>
</g>
<g>
</g>
<g>
</g>
</svg>
