<?xml version="1.0" encoding="UTF-8"?>
<svg xmlns="http://www.w3.org/2000/svg" xmlns:xlink="http://www.w3.org/1999/xlink" version="1.1" id="Layer_1" x="0px" y="0px" viewBox="0 0 75 75" style="enable-background:new 0 0 75 75;" xml:space="preserve">
<style type="text/css">
	.st0{fill:none;stroke:#000000;stroke-width:5;stroke-linecap:round;stroke-linejoin:round;stroke-miterlimit:333.3333;}
	.st1{fill:none;stroke:#000000;stroke-width:5;stroke-miterlimit:333.3333;}
</style>
<g>
	<path class="st0" d="M22.9,71l-1.6-1.6c-6.5-6.4-10.1-15.2-10.1-24.3l0,0c0-4,1.6-7.8,4.4-10.7l0,0c2.8-2.8,6.6-4.3,10.6-4.3h5.5   c3.2,0,5.8,2.6,5.9,5.8l0,0c0,3.2-2.6,5.8-5.9,5.8h0h-8.8"></path>
	<path class="st0" d="M22.9,41.8l1.1,0.4c8.2,3.3,13.5,11.2,13.6,20l0,0"></path>
	<path class="st0" d="M53.7,69.4c6.5-6.4,10.1-15.2,10.1-24.3"></path>
	<path class="st1" d="M18.9,30.2l-3.6-19.3c-0.5-3.2,1.6-6.2,4.7-6.8c0.3,0,0.7,0,1,0c2.8,0,5.2,2,5.8,4.8l3.8,21.6"></path>
	<path class="st1" d="M32.5,31.5l4-22.6C36.9,6.1,39.4,4,42.2,4c0.3,0,0.7,0,1,0c3.2,0.6,5.3,3.6,4.7,6.8l-3.5,19.6"></path>
	<path class="st0" d="M46.3,30.2L46.3,30.2c3.2,0,5.9,2.6,5.9,5.8v8.7c0,3.2-2.6,5.8-5.9,5.8h0c-3.2,0-5.9-2.6-5.9-5.8V36   C40.4,32.8,43,30.2,46.3,30.2z"></path>
	<path class="st0" d="M58,33.1L58,33.1c3.2,0,5.9,2.6,5.9,5.8v5.8c0,3.2-2.6,5.8-5.9,5.8h0c-3.2,0-5.9-2.6-5.9-5.8v-5.8   C52.1,35.7,54.7,33.1,58,33.1z"></path>
</g>
</svg>