<?xml version="1.0" encoding="iso-8859-1"?>
<!-- Generator: Adobe Illustrator 26.3.1, SVG Export Plug-In . SVG Version: 6.00 Build 0)  -->
<svg version="1.1" id="Layer_1" xmlns="http://www.w3.org/2000/svg" xmlns:xlink="http://www.w3.org/1999/xlink" x="0px" y="0px"
	 width="60px" height="60px" viewBox="0 0 60 60" enable-background="new 0 0 60 60" xml:space="preserve">
<path d="M30,0C13.431,0,0,13.431,0,30s13.431,30,30,30s30-13.431,30-30S46.569,0,30,0z M47.66,35.233
	c-0.637,1.668-1.461,3.046-2.471,4.132c-1.011,1.087-2.177,1.959-3.499,2.616c-1.322,0.658-2.938,1.166-4.848,1.526
	c-0.845,0.166-2.173,0.249-3.987,0.249h-1.263c-0.334,0-0.605-0.271-0.605-0.605v-0.326c0-0.334,0.271-0.605,0.605-0.605h1.741
	c2.312,0,4.077-0.789,5.295-2.367c1.661-2.132,2.492-5.44,2.492-9.925c0-3.613-0.568-6.499-1.703-8.659
	c-0.9-1.689-2.056-2.837-3.468-3.447c-0.991-0.426-2.631-0.634-4.921-0.623c-0.83,0-1.495,0.145-1.993,0.436
	c-0.346,0.194-0.623,0.526-0.831,0.997c-0.152,0.332-0.228,1.204-0.228,2.616v12.957c0,2.699-0.27,4.662-0.81,5.887
	c-0.54,1.225-1.499,2.25-2.876,3.073c-1.378,0.823-3.035,1.235-4.973,1.235c-2.367,0-4.281-0.623-5.741-1.869
	c-1.461-1.246-2.191-2.623-2.191-4.132c0-0.969,0.298-1.755,0.893-2.357c0.595-0.602,1.322-0.903,2.18-0.903
	c0.844,0,1.554,0.27,2.128,0.81c0.574,0.54,0.862,1.204,0.862,1.993c0,1.794-1.371,1.778-1.371,3.26c0,0.36,0.18,0.672,0.54,0.934
	c0.526,0.388,1.211,0.581,2.056,0.581c0.595,0,1.087-0.152,1.474-0.457c0.387-0.304,0.661-0.779,0.82-1.422
	c0.159-0.644,0.239-2.433,0.239-5.368V21.248c0-1.44-0.08-2.339-0.239-2.699c-0.159-0.36-0.471-0.675-0.934-0.945
	c-0.464-0.27-1.09-0.405-1.879-0.405h-0.578c-0.334,0-0.605-0.271-0.605-0.605v-0.388c0-0.334,0.271-0.605,0.605-0.605h15.279
	c3.364,0,6.07,0.457,8.119,1.37c2.505,1.121,4.405,2.817,5.7,5.087c1.294,2.271,1.941,4.838,1.941,7.704
	C48.615,31.741,48.296,33.565,47.66,35.233z"/>
<g>
</g>
<g>
</g>
<g>
</g>
<g>
</g>
<g>
</g>
<g>
</g>
</svg>
