<?xml version="1.0" encoding="UTF-8"?>
<svg id="Layer_1" xmlns="http://www.w3.org/2000/svg" version="1.1" viewBox="0 0 256 256">
  <path d="M207.69,151.62c-2.88,7.53-6.59,13.74-11.15,18.65-4.56,4.91-9.82,8.84-15.79,11.81-5.97,2.97-13.26,5.26-21.88,6.89-3.81.75-9.81,1.12-17.99,1.12h-5.7c-1.51,0-2.73-1.22-2.73-2.73v-1.47c0-1.51,1.22-2.73,2.73-2.73h7.86c10.43,0,18.4-3.56,23.89-10.68,7.5-9.62,11.24-24.55,11.24-44.79,0-16.3-2.56-29.33-7.68-39.07-4.06-7.62-9.28-12.8-15.65-15.55-4.47-1.92-11.87-2.86-22.2-2.81-3.75,0-6.75.66-8.99,1.97-1.56.88-2.81,2.37-3.75,4.5-.69,1.5-1.03,5.43-1.03,11.8v58.47c0,12.18-1.22,21.04-3.65,26.56s-6.76,10.15-12.98,13.87c-6.22,3.72-13.69,5.57-22.44,5.57-10.68,0-19.32-2.81-25.91-8.43-6.59-5.62-9.89-11.83-9.89-18.64,0-4.37,1.34-7.92,4.03-10.63,2.69-2.72,5.96-4.07,9.84-4.07s7.01,1.22,9.6,3.65c2.59,2.44,3.89,5.43,3.89,9,0,8.1-6.19,8.02-6.19,14.71,0,1.63.81,3.03,2.44,4.22,2.37,1.75,5.47,2.62,9.28,2.62,2.69,0,4.9-.69,6.65-2.06,1.75-1.37,2.98-3.51,3.7-6.42.72-2.91,1.08-10.98,1.08-24.22v-64.19c0-6.5-.36-10.56-1.08-12.18-.72-1.62-2.13-3.05-4.22-4.26-2.09-1.22-4.92-1.83-8.48-1.83h-2.61c-1.51,0-2.73-1.22-2.73-2.73v-1.75c0-1.51,1.22-2.73,2.73-2.73h68.95c15.18,0,27.39,2.06,36.64,6.19,11.3,5.06,19.88,12.71,25.72,22.96,5.84,10.25,8.76,21.83,8.76,34.76,0,8.93-1.44,17.16-4.31,24.69Z" style="fill: #02aaff;"/>
</svg>