<?xml version="1.0" encoding="UTF-8"?>
<svg id="Layer_1" xmlns="http://www.w3.org/2000/svg" version="1.1" viewBox="0 0 256 256">
  <path d="M249.43,163.99c-4.38,11.47-10.04,20.94-16.99,28.41-6.95,7.48-14.97,13.47-24.06,17.99-9.09,4.52-20.2,8.02-33.34,10.5-5.81,1.14-14.95,1.71-27.41,1.71h-8.69c-2.3,0-4.16-1.86-4.16-4.16v-2.24c0-2.3,1.86-4.16,4.16-4.16h11.97c15.9,0,28.03-5.43,36.41-16.28,11.42-14.66,17.13-37.41,17.13-68.25,0-24.84-3.9-44.69-11.71-59.54-6.19-11.61-14.14-19.51-23.84-23.7-6.81-2.93-18.09-4.36-33.83-4.28-5.71,0-10.28,1-13.7,3-2.38,1.34-4.28,3.62-5.71,6.85-1.05,2.28-1.57,8.28-1.57,17.99v89.09c0,18.56-1.86,32.06-5.57,40.48-3.71,8.42-10.3,15.47-19.78,21.13-9.47,5.66-20.87,8.49-34.2,8.49-16.28,0-29.44-4.28-39.48-12.85-10.05-8.56-15.07-18.03-15.07-28.41,0-6.66,2.05-12.07,6.14-16.2,4.09-4.14,9.09-6.21,14.99-6.21s10.68,1.86,14.63,5.57c3.95,3.71,5.93,8.28,5.93,13.71,0,12.34-9.43,12.23-9.43,22.42,0,2.48,1.24,4.62,3.71,6.43,3.62,2.67,8.33,4,14.14,4,4.09,0,7.47-1.05,10.14-3.14,2.66-2.09,4.54-5.35,5.64-9.78,1.09-4.43,1.64-16.73,1.64-36.91v-97.81c0-9.9-.55-16.09-1.64-18.56-1.1-2.47-3.24-4.64-6.43-6.5-3.19-1.86-7.5-2.78-12.92-2.78h-3.98c-2.3,0-4.16-1.86-4.16-4.16v-2.67c0-2.3,1.86-4.16,4.16-4.16h105.06c23.13,0,41.74,3.14,55.83,9.43,17.22,7.71,30.29,19.37,39.19,34.98,8.9,15.61,13.35,33.27,13.35,52.97,0,13.61-2.19,26.15-6.57,37.62Z" style="fill: #02aaff;"/>
</svg>