<svg xmlns="http://www.w3.org/2000/svg" width="60" height="60" xml:space="preserve"><path d="M30 0C13.431 0 0 13.431 0 30s13.431 30 30 30 30-13.431 30-30S46.569 0 30 0zm17.66 35.233c-.637 1.668-1.461 3.046-2.471 4.132a12.09 12.09 0 0 1-3.499 2.616c-1.322.658-2.938 1.166-4.848 1.526-.845.166-2.173.249-3.987.249h-1.263a.605.605 0 0 1-.605-.605v-.326c0-.334.271-.605.605-.605h1.741c2.312 0 4.077-.789 5.295-2.367 1.661-2.132 2.492-5.44 2.492-9.925 0-3.613-.568-6.499-1.703-8.659-.9-1.689-2.056-2.837-3.468-3.447-.991-.426-2.631-.634-4.921-.623-.83 0-1.495.145-1.993.436-.346.194-.623.526-.831.997-.152.332-.228 1.204-.228 2.616v12.957c0 2.699-.27 4.662-.81 5.887-.54 1.225-1.499 2.25-2.876 3.073-1.378.823-3.035 1.235-4.973 1.235-2.367 0-4.281-.623-5.741-1.869-1.461-1.246-2.191-2.623-2.191-4.132 0-.969.298-1.755.893-2.357.595-.602 1.322-.903 2.18-.903.844 0 1.554.27 2.128.81a2.63 2.63 0 0 1 .862 1.993c0 1.794-1.371 1.778-1.371 3.26 0 .36.18.672.54.934.526.388 1.211.581 2.056.581.595 0 1.087-.152 1.474-.457.387-.304.661-.779.82-1.422.159-.644.239-2.433.239-5.368V21.248c0-1.44-.08-2.339-.239-2.699-.159-.36-.471-.675-.934-.945-.464-.27-1.09-.405-1.879-.405h-.578a.605.605 0 0 1-.605-.605v-.388c0-.334.271-.605.605-.605h15.279c3.364 0 6.07.457 8.119 1.37 2.505 1.121 4.405 2.817 5.7 5.087 1.294 2.271 1.941 4.838 1.941 7.704 0 1.979-.319 3.803-.955 5.471z"/></svg>